<?xml version="1.0" standalone="no"?>
<!DOCTYPE svg PUBLIC "-//W3C//DTD SVG 20010904//EN"
 "http://www.w3.org/TR/2001/REC-SVG-20010904/DTD/svg10.dtd">
<svg version="1.0" xmlns="http://www.w3.org/2000/svg"
 width="467.000000pt" height="336.000000pt" viewBox="0 0 467.000000 336.000000"
 preserveAspectRatio="xMidYMid meet">

<g transform="translate(0.000000,336.000000) scale(0.100000,-0.100000)"
fill="#000000" stroke="none">
<path d="M1943 3271 c-122 -79 -208 -189 -220 -282 -5 -35 -14 -47 -62 -85
-31 -24 -57 -40 -59 -34 -2 5 11 46 28 91 34 89 37 151 9 157 -12 2 -51 -48
-132 -170 -123 -185 -139 -215 -157 -303 -7 -31 -15 -53 -20 -49 -4 5 -15 54
-25 109 -23 131 -41 177 -68 173 -53 -8 -83 -143 -74 -328 3 -63 11 -132 17
-152 9 -33 8 -43 -15 -89 -15 -29 -30 -48 -35 -43 -5 5 -22 80 -39 166 -31
164 -42 198 -66 198 -43 0 -69 -155 -54 -320 15 -159 48 -194 199 -205 154
-12 295 24 295 74 0 42 -41 47 -172 21 -63 -12 -116 -20 -118 -18 -2 2 9 24
25 48 29 43 31 45 86 47 31 1 79 10 108 19 113 37 213 78 244 101 39 29 42 60
6 69 -49 13 -178 -3 -257 -31 -43 -15 -80 -25 -83 -22 -6 6 79 139 100 156 10
8 27 8 66 0 39 -8 80 -8 158 0 106 11 152 28 152 56 0 25 -42 38 -154 49
l-108 11 28 29 c16 16 66 58 112 94 l83 65 62 -14 c150 -33 407 8 407 65 0 22
-14 27 -108 40 l-87 12 95 32 c122 41 160 64 160 96 0 19 -7 26 -28 31 -42 9
-150 -11 -243 -45 -45 -17 -86 -29 -91 -28 -5 2 13 30 40 63 73 91 102 137
102 162 0 35 -37 29 -107 -16z"/>
<path d="M2614 3296 c-11 -29 5 -61 76 -149 39 -48 66 -87 61 -87 -5 0 -56 15
-113 34 -173 58 -281 57 -249 -2 14 -27 61 -51 171 -88 l85 -29 -77 -6 c-99
-8 -128 -16 -128 -33 0 -65 258 -112 418 -77 l62 14 53 -35 c65 -44 177 -136
177 -147 0 -4 -53 -12 -117 -18 -65 -6 -130 -16 -145 -22 -42 -16 -36 -45 11
-64 60 -24 226 -39 297 -26 96 18 94 18 142 -41 l46 -55 -170 -6 c-174 -6
-214 -15 -214 -48 0 -46 77 -65 160 -41 19 6 100 21 179 35 79 13 155 32 168
41 35 23 53 73 53 152 0 112 -46 248 -93 276 -15 9 -21 7 -33 -9 -13 -17 -14
-40 -9 -137 7 -116 1 -198 -15 -198 -10 0 -70 117 -70 137 0 26 -41 94 -118
196 -43 56 -102 137 -131 180 -60 87 -84 96 -89 35 -2 -26 8 -63 32 -119 20
-45 34 -84 31 -87 -5 -5 -73 35 -102 61 -13 11 -23 32 -23 46 0 52 -58 152
-125 216 -85 81 -189 133 -201 101z"/>
<path d="M4265 2446 c-17 -7 -36 -20 -44 -29 -18 -23 -28 -21 -34 4 -5 20 -11
21 -73 16 -37 -3 -72 -11 -80 -19 -11 -10 -17 -63 -25 -194 -5 -98 -12 -193
-15 -210 -12 -77 -109 -160 -200 -170 -41 -5 -54 -2 -78 17 -29 23 -56 74 -56
107 0 16 10 21 49 26 63 8 146 66 185 129 61 99 43 221 -38 258 -69 31 -136
22 -218 -30 -101 -64 -158 -187 -164 -351 -1 -52 -3 -98 -3 -102 -2 -17 -77
-91 -111 -108 -106 -54 -190 -19 -202 85 -3 26 0 29 47 40 62 14 86 27 137 73
135 122 106 315 -49 329 -139 13 -278 -109 -314 -279 -17 -80 -7 -235 19 -284
84 -162 270 -164 444 -4 l65 59 33 -34 c48 -50 105 -69 187 -63 77 6 134 30
205 89 26 21 49 39 52 39 3 0 6 -18 6 -39 0 -22 4 -43 10 -46 16 -10 110 7
130 24 16 14 20 45 33 253 16 269 23 292 80 286 51 -5 56 -29 44 -208 -12
-186 -7 -222 39 -268 33 -33 37 -34 93 -30 97 7 183 81 198 172 5 30 3 36 -12
36 -10 0 -33 -18 -52 -40 -35 -41 -68 -51 -91 -28 -15 15 -15 87 -1 258 13
151 5 196 -38 229 -30 25 -110 28 -158 7z m-465 -214 c0 -58 -32 -117 -79
-149 -64 -43 -74 -24 -47 89 15 67 38 106 69 117 38 15 57 -4 57 -57z m-514
-37 c20 -31 12 -91 -20 -137 -24 -36 -84 -81 -100 -75 -15 5 -9 91 10 149 15
46 53 88 80 88 7 0 21 -11 30 -25z"/>
<path d="M363 2325 c-101 -31 -204 -122 -248 -218 -59 -129 -49 -283 26 -388
l21 -29 -46 -51 c-68 -76 -99 -148 -104 -245 -8 -152 42 -252 157 -311 53 -28
74 -33 130 -33 129 0 229 52 297 155 44 66 52 128 18 133 -14 2 -33 -12 -62
-47 -50 -59 -111 -91 -176 -91 -41 0 -53 5 -81 33 -55 55 -71 161 -39 267 29
99 55 121 168 140 71 13 104 33 107 65 6 68 -14 79 -117 66 -42 -5 -82 -7 -90
-4 -38 14 -46 172 -14 277 46 147 160 220 210 133 12 -22 13 -32 1 -74 -22
-77 -20 -98 10 -101 85 -10 152 162 100 258 -38 71 -157 100 -268 65z"/>
<path d="M2850 2229 c-14 -6 -40 -24 -57 -42 l-33 -31 0 26 c0 33 -24 42 -90
33 -82 -11 -80 -7 -91 -220 -6 -105 -12 -209 -15 -232 -6 -47 -46 -109 -95
-143 l-32 -23 6 94 c3 52 11 181 18 287 10 154 10 195 0 201 -6 4 -38 4 -69
-1 -54 -8 -82 -26 -82 -54 0 -8 -12 -6 -37 7 -49 25 -69 24 -131 -7 -90 -45
-150 -152 -172 -304 -13 -91 2 -199 35 -256 46 -78 140 -103 226 -58 27 14 29
13 29 -5 0 -13 -18 -32 -47 -52 -115 -77 -173 -167 -173 -269 0 -160 153 -214
283 -100 63 56 84 115 97 282 6 73 14 136 18 140 27 26 108 88 114 88 5 0 8
-9 8 -19 0 -11 5 -23 10 -26 15 -9 116 5 134 19 11 8 17 59 27 226 7 142 16
226 26 246 16 37 49 54 102 54 56 0 91 31 91 80 0 62 -37 84 -100 59z m-567
-362 c-2 -180 -11 -221 -51 -235 -69 -24 -99 35 -88 174 11 150 50 228 111
222 l30 -3 -2 -158z m-22 -566 c-6 -45 -18 -97 -26 -115 -19 -40 -58 -61 -86
-46 -26 15 -26 97 0 149 25 47 100 116 113 103 5 -5 5 -40 -1 -91z"/>
<path d="M1850 2073 c-14 -10 -32 -26 -41 -37 -16 -19 -16 -19 -23 9 l-7 28
-71 -5 c-50 -4 -75 -10 -83 -22 -7 -9 -15 -72 -19 -144 -15 -297 -14 -291 -60
-340 -53 -57 -102 -82 -166 -82 -61 0 -92 25 -111 90 -14 46 -5 60 39 60 62 0
170 83 203 155 27 58 25 154 -3 190 -63 80 -205 70 -307 -21 -29 -26 -58 -59
-66 -74 -20 -39 -43 -60 -66 -60 -17 0 -19 7 -19 63 0 49 -4 68 -18 80 -29 26
-70 21 -103 -12 -46 -46 -40 -129 12 -187 19 -20 18 -22 -12 -119 -42 -134
-77 -211 -90 -198 -5 5 -17 104 -25 219 -21 284 -11 258 -94 252 -97 -7 -102
-13 -95 -112 23 -301 53 -503 78 -535 9 -10 27 -12 74 -7 35 4 70 9 78 12 24
10 43 53 115 269 54 161 70 200 85 200 16 0 18 -11 19 -106 1 -96 4 -111 31
-164 20 -40 45 -69 73 -90 38 -26 54 -30 122 -33 67 -4 87 0 133 21 30 14 72
41 94 61 22 20 43 36 46 36 3 0 7 -15 9 -32 l3 -33 64 2 c40 1 69 7 78 16 11
10 18 71 29 228 8 118 19 227 25 242 15 36 37 47 92 47 79 0 130 69 93 125
-20 30 -78 34 -116 8z m-462 -155 c15 -15 16 -77 1 -115 -17 -45 -92 -113
-125 -113 -11 0 4 116 22 159 16 41 55 81 78 81 7 0 17 -5 24 -12z"/>
<path d="M4543 1692 c-16 -10 -30 -182 -15 -182 6 0 12 14 14 32 3 29 8 34 47
45 60 17 73 30 69 72 -3 36 -3 36 -53 39 -27 1 -56 -1 -62 -6z m85 -14 c29
-29 9 -61 -45 -73 -33 -7 -33 -6 -33 33 0 30 5 42 18 45 32 8 48 7 60 -5z"/>
<path d="M4343 1665 c-52 -22 -77 -99 -49 -153 19 -37 55 -47 100 -28 66 28
88 136 36 178 -26 21 -44 22 -87 3z m63 -13 c41 -27 39 -109 -3 -142 -31 -24
-51 -25 -75 -3 -20 18 -25 82 -7 114 15 29 62 47 85 31z"/>
<path d="M4200 1605 c0 -29 -5 -37 -26 -45 -14 -6 -39 -10 -55 -10 -28 0 -30
2 -27 33 2 17 -1 33 -7 35 -6 1 -11 -34 -13 -88 -2 -57 1 -90 8 -90 5 0 10 18
10 40 0 43 2 45 63 55 l37 6 0 -41 c0 -58 16 -49 24 13 9 76 7 127 -4 127 -5
0 -10 -16 -10 -35z"/>
<path d="M3891 1586 c-29 -31 -21 -64 17 -72 75 -16 92 -41 47 -70 -21 -14
-30 -15 -52 -5 -32 15 -45 4 -18 -15 44 -33 118 7 113 60 -3 27 -8 32 -45 41
-56 14 -69 27 -47 50 13 12 27 16 51 12 24 -4 33 -2 30 6 -2 7 -19 13 -38 15
-26 2 -40 -3 -58 -22z"/>
<path d="M3615 1561 l-40 -6 -8 -89 c-6 -54 -5 -92 1 -98 12 -12 112 1 112 15
0 6 -17 7 -45 4 -52 -8 -66 7 -47 49 9 17 20 24 41 24 16 0 33 5 37 12 5 8 -5
9 -34 5 -42 -5 -42 -5 -42 28 0 31 2 33 50 39 28 4 50 11 50 16 0 11 -11 11
-75 1z"/>
<path d="M3427 1530 c-20 -4 -40 -9 -43 -12 -3 -3 -8 -47 -11 -98 l-6 -93 54
7 c30 4 59 12 64 18 7 7 -6 9 -42 4 l-53 -7 0 36 c0 33 2 35 40 41 22 4 43 11
47 17 4 7 -8 8 -35 3 l-42 -6 0 34 c0 32 2 34 45 40 25 4 45 11 45 17 0 10 -8
10 -63 -1z"/>
<path d="M3245 1503 c-16 -3 -33 -8 -37 -11 -11 -12 -14 -177 -3 -182 6 -3 12
15 15 40 5 41 7 45 35 48 49 6 54 22 7 22 -40 0 -42 1 -42 30 0 28 3 30 50 36
28 4 50 10 50 15 0 9 -20 9 -75 2z"/>
<path d="M3050 1473 c-36 -7 -40 -18 -40 -110 0 -86 16 -116 22 -41 3 41 5 43
41 49 53 8 58 19 9 19 -40 0 -42 2 -42 29 0 31 14 41 60 41 16 0 32 5 35 10 6
10 -37 12 -85 3z"/>
<path d="M2828 1434 c-37 -19 -48 -43 -48 -102 0 -59 20 -82 74 -82 63 0 107
68 91 140 -12 54 -63 74 -117 44z m80 -17 c31 -37 20 -116 -19 -137 -24 -14
-63 -12 -77 2 -7 7 -12 32 -12 55 0 33 6 50 25 68 26 27 66 33 83 12z"/>
<path d="M2629 1405 c-48 -26 -67 -112 -34 -161 17 -27 57 -32 100 -12 28 12
35 35 8 23 -69 -30 -103 -11 -103 57 0 56 38 92 86 84 34 -7 48 7 18 18 -24 9
-46 7 -75 -9z"/>
<path d="M1263 1254 c-3 -9 3 -69 14 -133 12 -64 19 -118 17 -120 -2 -3 -58
48 -123 112 -65 64 -123 117 -130 117 -55 0 25 -166 143 -296 25 -29 46 -54
46 -56 0 -2 -50 3 -110 11 -120 15 -165 8 -158 -27 9 -45 209 -112 336 -112
l74 0 117 -118 c64 -64 144 -137 179 -162 34 -24 62 -48 62 -52 0 -14 -139
-40 -341 -63 -117 -13 -115 -50 5 -87 59 -19 94 -23 206 -23 134 0 136 0 229
39 88 36 98 38 130 26 71 -25 69 -30 -36 -80 -126 -60 -165 -92 -161 -133 2
-24 10 -33 38 -43 124 -44 396 24 457 115 35 53 31 117 -13 201 -63 121 -165
230 -215 230 -43 0 -8 -93 77 -203 24 -31 44 -61 44 -66 0 -11 -83 11 -147 39
-30 13 -43 25 -43 39 0 23 -85 195 -132 266 -21 31 -42 51 -56 53 -20 3 -22
-1 -22 -38 0 -23 14 -82 31 -132 17 -49 29 -91 27 -94 -3 -2 -32 14 -65 35
l-61 39 -1 69 c-1 112 -49 323 -87 380 -20 31 -52 30 -64 -3 -6 -14 -10 -82
-10 -152 l0 -127 -56 58 c-45 46 -55 62 -49 80 16 52 16 116 1 175 -18 70 -78
206 -103 234 -20 22 -42 23 -50 2z"/>
<path d="M3325 1239 c-67 -81 -111 -225 -102 -341 l6 -77 -50 -56 c-28 -30
-55 -55 -60 -55 -5 0 -9 56 -9 125 0 73 -5 135 -12 150 -16 35 -53 34 -72 -2
-22 -44 -68 -260 -74 -348 -2 -44 -9 -86 -15 -94 -15 -18 -110 -82 -115 -76
-2 2 8 33 22 69 30 75 46 148 39 177 -9 34 -45 18 -81 -36 -40 -61 -132 -242
-132 -260 0 -8 -12 -23 -26 -34 -28 -22 -130 -58 -139 -49 -3 3 17 44 45 92
57 96 73 152 46 162 -9 3 -27 -1 -41 -10 -32 -21 -125 -146 -161 -216 -91
-180 32 -295 328 -308 98 -4 122 -2 143 12 61 40 12 102 -131 168 -52 23 -94
45 -94 48 0 10 89 50 110 50 10 0 34 -9 52 -19 70 -41 152 -53 323 -48 203 6
258 24 208 70 -25 21 -81 33 -272 57 -91 11 -166 22 -168 24 -2 2 38 35 89 74
103 78 159 129 233 214 l50 56 54 -10 c120 -24 366 55 366 117 0 19 -7 20
-132 19 -73 -1 -133 0 -133 3 0 3 23 30 51 61 98 108 171 237 155 278 -6 15
-9 14 -34 -1 -15 -10 -74 -66 -131 -124 -75 -77 -105 -101 -108 -89 -2 9 5 62
16 119 13 71 17 109 10 121 -14 25 -23 23 -54 -13z"/>
<path d="M1084 686 c-12 -32 7 -65 77 -130 129 -120 292 -180 382 -143 72 30
42 79 -78 130 -44 19 -129 59 -190 90 -125 63 -181 78 -191 53z"/>
<path d="M3417 670 c-141 -30 -311 -120 -343 -182 -18 -34 -18 -43 2 -62 39
-40 181 -5 322 79 124 74 194 132 190 158 -4 30 -56 32 -171 7z"/>
</g>
</svg>
